<svg width="121" height="30" viewBox="0 0 121 30" fill="none" xmlns="http://www.w3.org/2000/svg">
<path d="M33.068 22V6.6H39.404C40.768 6.6 41.934 6.82 42.902 7.26C43.8847 7.7 44.64 8.33067 45.168 9.152C45.696 9.97333 45.96 10.9487 45.96 12.078C45.96 13.2073 45.696 14.1827 45.168 15.004C44.64 15.8107 43.8847 16.434 42.902 16.874C41.934 17.2993 40.768 17.512 39.404 17.512H34.652L35.928 16.214V22H33.068ZM43.144 22L39.25 16.412H42.308L46.224 22H43.144ZM35.928 16.522L34.652 15.158H39.272C40.5333 15.158 41.4793 14.8867 42.11 14.344C42.7553 13.8013 43.078 13.046 43.078 12.078C43.078 11.0953 42.7553 10.34 42.11 9.812C41.4793 9.284 40.5333 9.02 39.272 9.02H34.652L35.928 7.612V16.522ZM56.3758 22.22C55.1731 22.22 54.0658 22.022 53.0538 21.626C52.0418 21.23 51.1618 20.68 50.4138 19.976C49.6658 19.2573 49.0865 18.4213 48.6758 17.468C48.2651 16.5 48.0598 15.444 48.0598 14.3C48.0598 13.156 48.2651 12.1073 48.6758 11.154C49.0865 10.186 49.6658 9.35 50.4138 8.646C51.1618 7.92733 52.0418 7.37 53.0538 6.974C54.0658 6.578 55.1658 6.38 56.3538 6.38C57.5565 6.38 58.6565 6.578 59.6538 6.974C60.6658 7.37 61.5458 7.92733 62.2938 8.646C63.0418 9.35 63.6211 10.186 64.0318 11.154C64.4425 12.1073 64.6478 13.156 64.6478 14.3C64.6478 15.444 64.4425 16.5 64.0318 17.468C63.6211 18.436 63.0418 19.272 62.2938 19.976C61.5458 20.68 60.6658 21.23 59.6538 21.626C58.6565 22.022 57.5638 22.22 56.3758 22.22ZM56.3538 19.712C57.1311 19.712 57.8498 19.58 58.5098 19.316C59.1698 19.052 59.7418 18.678 60.2258 18.194C60.7098 17.6953 61.0838 17.1233 61.3478 16.478C61.6265 15.818 61.7658 15.092 61.7658 14.3C61.7658 13.508 61.6265 12.7893 61.3478 12.144C61.0838 11.484 60.7098 10.912 60.2258 10.428C59.7418 9.92933 59.1698 9.548 58.5098 9.284C57.8498 9.02 57.1311 8.888 56.3538 8.888C55.5765 8.888 54.8578 9.02 54.1978 9.284C53.5525 9.548 52.9805 9.92933 52.4818 10.428C51.9978 10.912 51.6165 11.484 51.3378 12.144C51.0738 12.7893 50.9418 13.508 50.9418 14.3C50.9418 15.0773 51.0738 15.796 51.3378 16.456C51.6165 17.116 51.9978 17.6953 52.4818 18.194C52.9658 18.678 53.5378 19.052 54.1978 19.316C54.8578 19.58 55.5765 19.712 56.3538 19.712ZM67.6793 22V6.6H74.4113C76.0833 6.6 77.55 6.92267 78.8113 7.568C80.0727 8.21333 81.0553 9.108 81.7593 10.252C82.4633 11.396 82.8153 12.7453 82.8153 14.3C82.8153 15.84 82.4633 17.1893 81.7593 18.348C81.0553 19.492 80.0727 20.3867 78.8113 21.032C77.55 21.6773 76.0833 22 74.4113 22H67.6793ZM70.5393 19.58H74.2793C75.438 19.58 76.4353 19.36 77.2713 18.92C78.122 18.48 78.7747 17.864 79.2293 17.072C79.6987 16.28 79.9333 15.356 79.9333 14.3C79.9333 13.2293 79.6987 12.3053 79.2293 11.528C78.7747 10.736 78.122 10.12 77.2713 9.68C76.4353 9.24 75.438 9.02 74.2793 9.02H70.5393V19.58ZM83.4623 22L90.3923 6.6H93.2083L100.16 22H97.1683L91.2063 8.118H92.3503L86.4103 22H83.4623ZM86.6523 18.436L87.4223 16.192H95.7383L96.5083 18.436H86.6523ZM102.119 22V6.6H104.979V22H102.119ZM112.268 22V9.02H107.164V6.6H120.232V9.02H115.128V22H112.268Z" fill="white"/>
<path d="M25.9873 2.48832C25.9903 2.46039 25.9903 2.43225 25.9873 2.40432V2.31432C25.9232 1.6807 25.6157 1.09268 25.1246 0.664844C24.6336 0.237008 23.9942 0 23.3311 0C22.6679 0 22.0286 0.237008 21.5375 0.664844C21.0465 1.09268 20.7389 1.6807 20.6748 2.31432V2.37432C20.6748 2.41632 20.6748 2.45232 20.6748 2.49432C20.6748 2.53632 20.6748 2.57832 20.6748 2.61432V8.53031C20.6803 8.69377 20.6392 8.85557 20.5561 8.99831C20.4514 9.17521 20.3209 9.33684 20.1686 9.47831C20.0546 9.58957 19.9214 9.68093 19.7748 9.74831C19.6522 9.79636 19.5332 9.8525 19.4186 9.91631C19.2811 9.94631 18.9498 10.0363 18.4123 10.1983L16.6873 10.7023C16.0311 10.8943 15.3436 11.0923 14.6186 11.3023L12.6936 11.8363C11.5035 12.1341 10.449 12.8006 9.69359 13.7323C9.00938 14.5942 8.64033 15.6487 8.64359 16.7323V24.0703C8.64078 24.7922 8.81869 25.5042 9.16234 26.1463C9.5554 26.8416 10.1278 27.4283 10.8248 27.8503C11.6636 28.3477 12.5822 28.7086 13.5436 28.9183C14.79 29.1902 16.0655 29.3191 17.3436 29.3023C20.2373 29.3023 22.3436 28.8343 23.7436 27.8743C24.4168 27.4675 24.975 26.9075 25.3686 26.2439C25.7622 25.5803 25.979 24.8337 25.9998 24.0703V2.57232C25.9987 2.54398 25.9945 2.51583 25.9873 2.48832ZM20.6498 23.4883C20.6453 23.6777 20.5984 23.8639 20.5123 24.0343C20.4173 24.2375 20.2687 24.4133 20.0811 24.5443C19.7812 24.7485 19.4441 24.897 19.0873 24.9823C17.9385 25.2246 16.7486 25.2246 15.5998 24.9823C15.2467 24.9075 14.9116 24.7691 14.6123 24.5743C14.4103 24.4285 14.2492 24.2367 14.1436 24.0163C14.0419 23.7991 13.9745 23.5686 13.9436 23.3323V17.3743C13.9263 17.0835 14.0074 16.7952 14.1748 16.5523C14.3457 16.3073 14.5568 16.0905 14.7998 15.9103C15.0634 15.7102 15.3588 15.5521 15.6748 15.4423C16.1686 15.2923 16.6936 15.1423 17.2561 14.9923L20.2686 14.1703C20.3936 14.1438 20.5168 14.1098 20.6373 14.0683L20.6498 23.4883Z" fill="white"/>
<path d="M13.9688 4.99022C13.77 4.53867 13.4214 4.16276 12.9773 3.92083C12.5332 3.67889 12.0183 3.58447 11.5125 3.65222C10.7859 3.70189 10.0714 3.85769 9.39377 4.11422C8.51252 4.47422 7.22502 5.05022 6.37502 5.42822C5.71252 5.84822 5.12503 6.02822 3.87503 6.79022C2.77445 7.42947 1.81476 8.26924 1.05003 9.26221C0.36583 10.1241 -0.00322468 11.1786 3.2706e-05 12.2622V17.9022C-0.00277425 18.6241 0.175135 19.3361 0.518782 19.9782C0.909762 20.6749 1.48266 21.2621 2.18128 21.6822C3.00883 22.1932 3.92234 22.5626 4.88128 22.7742C5.01654 22.8193 5.15424 22.8574 5.29378 22.8882V17.5722C5.27503 17.4162 5.21253 14.9742 5.21253 14.9742C5.21253 13.7322 5.33753 12.3582 5.87503 11.6502C6.62113 10.7117 7.64828 10.0145 8.81877 9.65221C8.81877 9.65221 10.9125 8.82422 12.0375 8.30222C13.825 7.46822 14.6125 6.62822 13.9688 4.99022Z" fill="white"/>
</svg>
